<?xml version="1.0" encoding="UTF-8"?>
<svg width="26px" height="21px" viewBox="0 0 26 21" version="1.1" xmlns="http://www.w3.org/2000/svg" xmlns:xlink="http://www.w3.org/1999/xlink">
    <!-- Generator: Sketch 42 (36781) - http://www.bohemiancoding.com/sketch -->
    <title>Combined Shape</title>
    <desc>Created with Sketch.</desc>
    <defs></defs>
    <g id="Page-1" stroke="none" stroke-width="1" fill="none" fill-rule="evenodd">
        <g id="Artboard" transform="translate(-917.000000, -53.000000)" fill="#D8D8D8">
            <path d="M935.113784,65.0644722 L919.133647,65.0644722 C917.980208,65.0644722 917.04516,64.1410114 917.04516,62.983972 C917.04516,61.8349435 917.979563,60.9034718 919.133647,60.9034718 L934.941888,60.9034718 L930.678486,56.6400693 C929.865214,55.8267978 929.858913,54.5145256 930.677063,53.6963752 C931.489549,52.8838893 932.81068,52.8877202 933.620758,53.6977977 L941.266102,61.3431424 C941.294127,61.371167 941.321193,61.3997842 941.347301,61.4289532 C941.775555,61.8087367 942.04516,62.3626801 942.04516,62.983972 C942.04516,63.3833188 941.932292,63.7563864 941.73656,64.0732037 C941.635187,64.3372176 941.478308,64.5844922 941.266102,64.7966976 L933.620758,72.4420424 C932.807486,73.2553138 931.495214,73.2616152 930.677063,72.4434648 C929.864578,71.630979 929.868408,70.3098483 930.678486,69.4997708 L935.113784,65.0644722 Z" id="Combined-Shape"></path>
        </g>
    </g>
</svg>