<?xml version="1.0" encoding="UTF-8"?>
<svg width="11px" height="14px" viewBox="0 0 11 14" version="1.1" xmlns="http://www.w3.org/2000/svg" xmlns:xlink="http://www.w3.org/1999/xlink">
    <!-- Generator: Sketch 42 (36781) - http://www.bohemiancoding.com/sketch -->
    <title>Combined Shape</title>
    <desc>Created with Sketch.</desc>
    <defs></defs>
    <g id="Page-1" stroke="none" stroke-width="1" fill="none" fill-rule="evenodd">
        <g id="Artboard" transform="translate(-1125.000000, -737.000000)" fill="#2D6CB6">
            <path d="M1134.76306,744.639025 L1124.94476,744.639025 C1124.5355,744.639025 1124.20373,744.306126 1124.20373,743.889025 C1124.20373,743.474811 1124.54034,743.139025 1124.94476,743.139025 L1134.76826,743.139025 L1131.55532,739.926084 C1131.2617,739.632465 1131.25907,739.159046 1131.554,738.864111 C1131.8469,738.571218 1132.32258,738.572027 1132.61598,738.865423 L1137.09732,743.346771 C1137.27156,743.521007 1137.34333,743.758559 1137.31125,743.984557 C1137.29201,744.146338 1137.22027,744.303139 1137.09612,744.427285 L1132.61585,748.907558 C1132.3223,749.201106 1131.84894,749.203678 1131.554,748.908743 C1131.26111,748.61585 1131.26186,748.140224 1131.55519,747.846898 L1134.76306,744.639025 Z" id="Combined-Shape" transform="translate(1130.761208, 743.886871) rotate(90.000000) translate(-1130.761208, -743.886871) "></path>
        </g>
    </g>
</svg>